<svg xmlns="http://www.w3.org/2000/svg" viewBox="0 0 512 512">
  <defs>
    <linearGradient id="bg" x1="0" y1="0" x2="1" y2="1">
      <stop offset="0%" stop-color="#0b160c"/>
      <stop offset="100%" stop-color="#1e3d20"/>
    </linearGradient>
  </defs>
  <rect width="512" height="512" rx="96" fill="url(#bg)"/>
  <g transform="translate(66 180) scale(3.167)">
    <path
      d="M60 26C60 26 48 4 30 4 14 4 4 14 4 26 4 38 14 48 30 48 48 48 60 26 60 26Z"
      stroke="#4a7c2f"
      stroke-width="5"
      fill="none"
      stroke-linecap="round"
    />
    <path
      d="M60 26C60 26 72 4 90 4 106 4 116 14 116 26 116 38 106 48 90 48 72 48 60 26 60 26Z"
      stroke="#6db33f"
      stroke-width="5"
      fill="none"
      stroke-linecap="round"
    />
    <path
      d="M88 6C92 2 100 4 98 12 96 18 88 20 84 16 80 12 82 8 88 6Z"
      fill="#4a7c2f"
    />
  </g>
  <text
    x="256"
    y="430"
    font-family="Plus Jakarta Sans, Space Grotesk, Segoe UI, sans-serif"
    font-size="58"
    font-weight="800"
    text-anchor="middle"
    fill="#E8F0E0"
    letter-spacing="6"
  >AYUMONK</text>
</svg>
